<svg id="Vector_Smart_Object" data-name="Vector Smart Object" xmlns="http://www.w3.org/2000/svg" xmlns:xlink="http://www.w3.org/1999/xlink" width="579" height="582" viewBox="0 0 579 582">
  <defs>
    <clipPath id="clip-path">
      <rect id="Rectangle_44" data-name="Rectangle 44" width="579" height="582" fill="none"/>
    </clipPath>
  </defs>
  <g id="Group_81" data-name="Group 81">
    <g id="Group_80" data-name="Group 80" clip-path="url(#clip-path)">
      <path id="Path_43" data-name="Path 43" d="M351.647,61.756c-1.055,0-3.313,1.018-6.2,4.1-5.667,6.024-10.267,15.946-9.84,24.962q1.152-.753,2.276-1.611C351.693,78.681,355.7,69.9,354.848,65.178a4.025,4.025,0,0,0-2.874-3.377,1.072,1.072,0,0,0-.327-.044m-37.435-18c-3.443,0-7.533,1.792-10.962,4.865-3.634,3.252-9.681,10.767-9.366,24.536a23.048,23.048,0,0,0,9.73,18.609,57.937,57.937,0,0,0,18.708-39.715c.025-.818.011-7.319-6.928-8.221a9.359,9.359,0,0,0-1.183-.074M346.8,109.5c-6.741,0-12.213-3.812-14.739-10.518-.048-.133-.1-.267-.144-.4-9.036,3.836-18.642,3.876-27.018-.137-.274-.131-.544-.265-.811-.4a68.682,68.682,0,0,1-16.133,9.671,2.56,2.56,0,1,1-2.04-4.7,65.4,65.4,0,0,0,13.634-7.871,28.1,28.1,0,0,1-10.8-21.86c-.363-15.817,6.776-24.621,11.065-28.462,4.99-4.469,11.062-6.725,16.24-6.057,9.4,1.223,11.566,9.3,11.4,13.409a64.992,64.992,0,0,1-19.2,42.166c6.971,2.929,14.918,2.588,22.423-.811C328.944,81.23,335.848,68.57,341.7,62.352c4.254-4.524,8.433-6.462,11.766-5.45a9.106,9.106,0,0,1,6.434,7.365c.7,3.86.255,14.41-18.905,29a43.591,43.591,0,0,1-4.444,2.977c.1.316.207.624.325.933,2.87,7.633,9.2,7.6,12.71,6.915,6.921-1.367,14.174-7.663,13.94-14.862a2.567,2.567,0,0,1,5.112-.4c.12.831,1.526,8.275,12.776,7.793,11.718-.515,12.527-8.794,12.555-9.146a2.567,2.567,0,0,1,5.117.412c-.37,4.539-4.492,13.275-17.445,13.844-7.235.31-11.838-2.115-14.6-5.109-3.043,6.437-9.887,11.186-16.454,12.483a19.516,19.516,0,0,1-3.779.38" fill="#f7f0c5"/>
      <path id="Path_44" data-name="Path 44" d="M221.066,61.758a1.1,1.1,0,0,0-.328.042,4.027,4.027,0,0,0-2.872,3.377c-.855,4.718,3.154,13.5,16.97,24.024q1.124.858,2.274,1.607c.428-9.012-4.173-18.934-9.84-24.958-2.891-3.073-5.147-4.093-6.2-4.093m37.436-18a9.343,9.343,0,0,0-1.182.074c-6.941.9-6.955,7.4-6.935,8.141A58.034,58.034,0,0,0,269.1,91.77a23.059,23.059,0,0,0,9.727-18.609c.317-13.771-5.731-21.285-9.364-24.538-3.43-3.071-7.519-4.863-10.962-4.863M225.908,109.5a19.458,19.458,0,0,1-3.774-.38c-6.572-1.3-13.415-6.046-16.458-12.483-2.762,3-7.378,5.423-14.6,5.109-12.953-.569-17.076-9.3-17.446-13.844a2.567,2.567,0,0,1,5.116-.432c.09.9,1.2,8.666,12.556,9.166,11.605.516,12.734-7.454,12.776-7.793a2.567,2.567,0,0,1,5.112.4c-.233,7.2,7.021,13.5,13.942,14.862,3.513.694,9.837.721,12.71-6.915.116-.309.223-.617.322-.933a44.577,44.577,0,0,1-4.442-2.977c-19.163-14.593-19.6-25.143-18.906-29a9.108,9.108,0,0,1,6.433-7.365c3.335-1,7.514.925,11.768,5.45,5.85,6.218,12.754,18.88,11.016,31.172,7.506,3.4,15.449,3.74,22.424.811a65.037,65.037,0,0,1-19.2-42.266c-.167-4.005,2-12.086,11.4-13.309,5.175-.674,11.249,1.588,16.239,6.055,4.288,3.843,11.427,12.645,11.064,28.464a28.1,28.1,0,0,1-10.8,21.86,65.36,65.36,0,0,0,13.633,7.871,2.56,2.56,0,1,1-2.04,4.7,68.533,68.533,0,0,1-16.131-9.671c-.267.137-.539.273-.813.4-8.376,4.012-17.982,3.972-27.018.139-.047.136-.1.27-.147.4-2.522,6.706-8,10.518-14.737,10.518" fill="#f7f0c5"/>
      <path id="Path_45" data-name="Path 45" d="M298.4.081c-7.4-.954-11.762,6.832-12.043,7.352-.279-.52-4.651-8.306-12.049-7.352-7.662,1-18.157,14.74,12.037,34.457v.011l.012-.007s0,.007.017.007v-.011C316.559,14.82,306.061,1.077,298.4.081" fill="#f7f0c5"/>
      <path id="Path_46" data-name="Path 46" d="M221.066,520.244c1.055,0,3.312-1.018,6.2-4.1,5.666-6.024,10.267-15.946,9.839-24.961q-1.152.753-2.276,1.61c-13.814,10.522-17.824,19.307-16.969,24.025a4.027,4.027,0,0,0,2.874,3.377,1.077,1.077,0,0,0,.327.044m37.435,18c3.444,0,7.532-1.792,10.962-4.864,3.634-3.253,9.681-10.769,9.366-24.538a23.051,23.051,0,0,0-9.73-18.608,57.944,57.944,0,0,0-18.708,39.714c-.025.819-.011,7.319,6.928,8.221a9.173,9.173,0,0,0,1.183.075M225.909,472.5c6.74,0,12.213,3.811,14.739,10.518.047.133.1.267.144.4,9.036-3.836,18.642-3.876,27.018.136.274.132.544.266.811.4a68.662,68.662,0,0,1,16.133-9.671,2.56,2.56,0,1,1,2.04,4.7,65.44,65.44,0,0,0-13.634,7.872,28.1,28.1,0,0,1,10.8,21.86c.363,15.817-6.776,24.62-11.065,28.461-4.99,4.47-11.062,6.725-16.24,6.058-9.4-1.223-11.566-9.3-11.4-13.409a64.986,64.986,0,0,1,19.195-42.166c-6.971-2.929-14.918-2.588-22.424.811,1.739,12.294-5.165,24.953-11.015,31.173-4.254,4.523-8.433,6.461-11.766,5.449a9.106,9.106,0,0,1-6.434-7.365c-.7-3.861-.256-14.41,18.905-29a43.464,43.464,0,0,1,4.445-2.979c-.1-.315-.208-.624-.326-.932-2.87-7.633-9.2-7.6-12.71-6.916-6.921,1.367-14.173,7.664-13.94,14.863a2.567,2.567,0,0,1-5.112.4c-.121-.83-1.526-8.275-12.775-7.792-11.719.515-12.528,8.793-12.556,9.147a2.567,2.567,0,0,1-5.118-.413c.371-4.539,4.493-13.275,17.446-13.844,7.235-.31,11.838,2.115,14.6,5.108,3.043-6.438,9.887-11.186,16.454-12.483a19.518,19.518,0,0,1,3.779-.38" fill="#f7f0c5"/>
      <path id="Path_47" data-name="Path 47" d="M351.647,520.242a1.1,1.1,0,0,0,.328-.042,4.027,4.027,0,0,0,2.872-3.377c.855-4.718-3.154-13.5-16.97-24.025q-1.122-.857-2.274-1.606c-.428,9.011,4.172,18.934,9.84,24.957,2.892,3.073,5.147,4.093,6.2,4.093m-37.436,18a9.157,9.157,0,0,0,1.182-.075c6.941-.9,6.954-7.4,6.935-8.141a58.033,58.033,0,0,0-18.715-39.794,23.056,23.056,0,0,0-9.727,18.608c-.318,13.771,5.732,21.286,9.364,24.539,3.43,3.071,7.519,4.863,10.962,4.863M346.805,472.5a19.459,19.459,0,0,1,3.774.38c6.571,1.3,13.415,6.045,16.458,12.483,2.762-3,7.377-5.423,14.6-5.108,12.953.569,17.076,9.3,17.446,13.844a2.567,2.567,0,0,1-5.115.431c-.091-.9-1.2-8.665-12.557-9.165-11.6-.517-12.733,7.453-12.775,7.792a2.568,2.568,0,0,1-5.114-.4c.235-7.2-7.02-13.5-13.941-14.863-3.513-.693-9.837-.72-12.71,6.916-.115.308-.224.617-.323.932a44.306,44.306,0,0,1,4.441,2.979c19.163,14.592,19.606,25.141,18.907,29a9.108,9.108,0,0,1-6.433,7.365c-3.335,1-7.514-.925-11.768-5.449-5.85-6.22-12.754-18.881-11.017-31.173-7.5-3.4-15.448-3.74-22.422-.811a65.047,65.047,0,0,1,19.2,42.265c.167,4.006-2,12.087-11.4,13.31-5.175.673-11.249-1.588-16.238-6.056-4.289-3.843-11.428-12.644-11.065-28.463a28.1,28.1,0,0,1,10.8-21.86,65.406,65.406,0,0,0-13.633-7.872,2.56,2.56,0,1,1,2.04-4.7,68.553,68.553,0,0,1,16.131,9.671c.267-.137.539-.273.812-.4,8.377-4.011,17.983-3.971,27.019-.138.047-.136.1-.27.146-.4,2.523-6.707,8-10.518,14.738-10.518" fill="#f7f0c5"/>
      <path id="Path_48" data-name="Path 48" d="M274.311,581.919c7.4.953,11.762-6.832,12.043-7.351.279.519,4.651,8.3,12.049,7.351,7.661-1,18.157-14.74-12.037-34.458v-.01l-.012.006s0-.006-.017-.006v.01c-30.184,19.718-19.686,33.462-12.026,34.458" fill="#f7f0c5"/>
      <path id="Path_49" data-name="Path 49" d="M264.519,556.324c-.076,0-.152,0-.229-.01a268.831,268.831,0,0,1-238.617-209.4,2.555,2.555,0,0,1,4.993-1.09A263.727,263.727,0,0,0,264.741,551.239a2.547,2.547,0,0,1-.222,5.085" fill="#f7f0c5"/>
      <path id="Path_50" data-name="Path 50" d="M25.473,248.881a2.558,2.558,0,0,1-2.525-2.957C42.488,126.2,140.734,34.326,261.864,22.506a2.548,2.548,0,1,1,.5,5.071C143.537,39.172,47.16,129.3,27.993,246.743a2.555,2.555,0,0,1-2.52,2.138" fill="#f7f0c5"/>
      <path id="Path_51" data-name="Path 51" d="M551.808,252.1a2.553,2.553,0,0,1-2.523-2.169,263.592,263.592,0,0,0-240.6-222.852,2.547,2.547,0,1,1,.388-5.08A268.7,268.7,0,0,1,554.338,249.174a2.548,2.548,0,0,1-2.146,2.9,2.629,2.629,0,0,1-.384.028" fill="#f7f0c5"/>
      <path id="Path_52" data-name="Path 52" d="M303.856,556.937a2.548,2.548,0,0,1-.144-5.091C421.935,545.1,521.741,459.792,546.422,344.4a2.555,2.555,0,0,1,5,1.063C526.262,463.092,424.521,550.052,304,556.933c-.049,0-.1,0-.148,0" fill="#f7f0c5"/>
      <path id="Path_53" data-name="Path 53" d="M259.494,569.279a2.38,2.38,0,0,1-.264-.014A282.206,282.206,0,0,1,11.59,345.148a2.555,2.555,0,0,1,5.01-1A277.107,277.107,0,0,0,259.752,564.2a2.547,2.547,0,0,1-.257,5.082" fill="#f7f0c5"/>
      <path id="Path_54" data-name="Path 54" d="M11.74,249.841a2.657,2.657,0,0,1-.385-.029,2.549,2.549,0,0,1-2.145-2.9C28.247,121.286,130.021,23.7,256.7,9.6a2.548,2.548,0,1,1,.568,5.064C132.884,28.507,32.955,124.325,14.264,247.673a2.555,2.555,0,0,1-2.524,2.167" fill="#f7f0c5"/>
      <path id="Path_55" data-name="Path 55" d="M565.354,252a2.552,2.552,0,0,1-2.525-2.187A276.987,276.987,0,0,0,314.28,14.129a2.548,2.548,0,1,1,.472-5.074A282.088,282.088,0,0,1,567.887,249.09a2.548,2.548,0,0,1-2.167,2.883,2.66,2.66,0,0,1-.366.026" fill="#f7f0c5"/>
      <path id="Path_56" data-name="Path 56" d="M312.4,569.735a2.548,2.548,0,0,1-.213-5.087A277.1,277.1,0,0,0,560.084,344.6a2.555,2.555,0,0,1,5.009,1.015A282.211,282.211,0,0,1,312.619,569.726c-.072.006-.146.009-.218.009" fill="#f7f0c5"/>
      <path id="Path_57" data-name="Path 57" d="M561.5,313.377A17.443,17.443,0,1,1,579,295.934a17.471,17.471,0,0,1-17.5,17.443" fill="#f7f0c5"/>
      <path id="Path_58" data-name="Path 58" d="M17.5,313.377A17.443,17.443,0,1,1,35,295.934a17.471,17.471,0,0,1-17.5,17.443" fill="#f7f0c5"/>
      <path id="Path_59" data-name="Path 59" d="M566.319,289.766c-2.96-.381-4.705,2.732-4.818,2.94-.111-.208-1.86-3.321-4.82-2.94-3.064.4-7.262,5.9,4.815,13.783v0l0,0s0,0,.007,0v0c12.074-7.888,7.874-13.385,4.811-13.783" fill="#9f0c1c"/>
      <path id="Path_60" data-name="Path 60" d="M22.317,289.766c-2.96-.381-4.705,2.732-4.818,2.94-.111-.208-1.86-3.321-4.82-2.94-3.064.4-7.262,5.9,4.816,13.783v0l0,0s0,0,.007,0v0c12.074-7.888,7.874-13.385,4.81-13.783" fill="#9f0c1c"/>
    </g>
  </g>
</svg>
