<svg xmlns="http://www.w3.org/2000/svg" xmlns:xlink="http://www.w3.org/1999/xlink" width="27" height="26" viewBox="0 0 27 26">
  <defs>
    <clipPath id="clip-path">
      <rect id="Rectangle_13" data-name="Rectangle 13" width="27" height="26" transform="translate(0 0)" fill="none"/>
    </clipPath>
  </defs>
  <g id="Vector_Smart_Object" data-name="Vector Smart Object" transform="translate(0 0)">
    <g id="Group_20" data-name="Group 20">
      <g id="Group_19" data-name="Group 19" clip-path="url(#clip-path)">
        <path id="Path_1" data-name="Path 1" d="M23.81,11.76q0,4.914,0,9.828c0,1.02-.285,1.326-1.3,1.326q-9,.015-18,0c-.954,0-1.313-.32-1.315-1.185-.011-3.421-.005-6.841,0-10.263a3.451,3.451,0,0,1,.046-.387H5.391a7.845,7.845,0,0,0,2.58,7.876,8.179,8.179,0,0,0,6.134,2.036,8.152,8.152,0,0,0,7.518-9.925H23.81ZM13.456,8.031a5.047,5.047,0,0,1,5.169,4.929,5.011,5.011,0,0,1-5.108,4.973,5.01,5.01,0,0,1-5.129-4.949,5.036,5.036,0,0,1,5.068-4.952m6.323-4.956c1-.009,2-.012,2.99,0a.931.931,0,0,1,1.032.992q.037,1.44,0,2.879a.967.967,0,0,1-1.1,1.014c-.5,0-.995,0-1.5,0-.472,0-.944.009-1.419,0-.647-.015-1.037-.325-1.049-.965-.019-.985-.015-1.969,0-2.954a.914.914,0,0,1,1.041-.967M23.6,0Q18.54,0,13.478,0,8.458,0,3.432,0A3.081,3.081,0,0,0,.014,3.2Q-.013,13,.015,22.787A3.03,3.03,0,0,0,3.3,25.981q10.2.037,20.4,0a3.061,3.061,0,0,0,3.3-3.245q.012-9.758,0-19.511A3.082,3.082,0,0,0,23.6,0" fill="#f6efc5"/>
      </g>
    </g>
  </g>
</svg>
