<svg xmlns="http://www.w3.org/2000/svg" xmlns:xlink="http://www.w3.org/1999/xlink" width="289" height="21" viewBox="0 0 289 21">
  <defs>
    <clipPath id="clip-path">
      <rect id="Rectangle_42" data-name="Rectangle 42" width="289" height="21" transform="translate(0 0)" fill="none"/>
    </clipPath>
  </defs>
  <g id="line_smail" transform="translate(-337 -405)">
    <g id="line_smail-2" data-name="line_smail" transform="translate(337 405)">
      <g id="Group_77" data-name="Group 77">
        <g id="Group_76" data-name="Group 76" clip-path="url(#clip-path)">
          <path id="Path_39" data-name="Path 39" d="M144.5,17.363a6.936,6.936,0,0,0,7.008-6.863,7.011,7.011,0,0,0-14.018,0,6.937,6.937,0,0,0,7.01,6.863" fill="#1a1818"/>
          <line id="Line_11" data-name="Line 11" x2="116.18" transform="translate(0 10.5)" fill="none" stroke="#1a1818" stroke-width="3.003"/>
          <line id="Line_12" data-name="Line 12" x2="116.18" transform="translate(172.82 10.5)" fill="none" stroke="#1a1818" stroke-width="3.003"/>
          <path id="Path_40" data-name="Path 40" d="M151.91.064a8.273,8.273,0,0,0-7.575,3.44,8.285,8.285,0,0,0-7.579-3.44c-4.82.614-11.422,8.77,7.571,20.93V21l0,0h0l.01,0v0s0,0,2.615-1.679C163.332,8.834,156.729.678,151.91.064" fill="#9f0c1c"/>
        </g>
      </g>
    </g>
    <path id="Color_Overlay" data-name="Color Overlay" d="M481.339,426h-.013v-.006c-18.994-12.16-12.392-20.315-7.572-20.93a8.282,8.282,0,0,1,7.579,3.44,8.273,8.273,0,0,1,7.576-3.44c4.819.615,11.423,8.77-4.951,19.255-2.615,1.675-2.615,1.678-2.615,1.678v0Zm28.481-10.5h0ZM337,415.5h0Z" fill="#f5f5d2"/>
  </g>
</svg>
