<svg xmlns="http://www.w3.org/2000/svg" xmlns:xlink="http://www.w3.org/1999/xlink" width="16" height="26" viewBox="0 0 16 26">
  <defs>
    <clipPath id="clip-path">
      <rect id="Rectangle_15" data-name="Rectangle 15" width="16" height="26" transform="translate(0 0)" fill="none"/>
    </clipPath>
  </defs>
  <g id="Vector_Smart_Object" data-name="Vector Smart Object" transform="translate(0 0)">
    <g id="Group_24" data-name="Group 24">
      <g id="Group_23" data-name="Group 23" clip-path="url(#clip-path)">
        <path id="Path_3" data-name="Path 3" d="M11.312,6.582a3.312,3.312,0,0,1-6.622,0,3.312,3.312,0,0,1,6.622,0m3.422,0A6.661,6.661,0,0,0,8,0,6.66,6.66,0,0,0,1.267,6.582,6.657,6.657,0,0,0,8,13.161a6.658,6.658,0,0,0,6.732-6.579m1.027,7.382c-.38-.745-1.431-1.366-2.833-.287A9.36,9.36,0,0,1,8,15.13a9.366,9.366,0,0,1-4.93-1.453c-1.4-1.079-2.452-.458-2.831.287-.664,1.3.087,1.932,1.775,2.99a11.414,11.414,0,0,0,4.708,1.37L5.652,19.37c-1.5,1.471-2.958,2.894-3.965,3.878a1.485,1.485,0,0,0,0,2.132l.18.179a1.574,1.574,0,0,0,2.183,0l3.967-3.878c1.5,1.471,2.958,2.9,3.967,3.878a1.571,1.571,0,0,0,2.181,0l.185-.179a1.481,1.481,0,0,0,0-2.132L10.381,19.37,9.313,18.32a11.342,11.342,0,0,0,4.67-1.366c1.69-1.058,2.441-1.687,1.777-2.99" fill="#f6efc5"/>
      </g>
    </g>
  </g>
</svg>
