<svg width="0" height="0" class="hidden">
<symbol xmlns="http://www.w3.org/2000/svg" viewBox="0 0 27 26" id="instagram">
    <defs>
      <clipPath id="a">
        <path fill="none" d="M0 0h27v26H0z"></path>
      </clipPath>
    </defs>
    <g clip-path="url(#a)">
      <path d="M23.81 11.76v9.828c0 1.02-.285 1.326-1.3 1.326q-9 .015-18 0c-.954 0-1.313-.32-1.315-1.185-.011-3.421-.005-6.841 0-10.263a3.451 3.451 0 0 1 .046-.387h2.15a7.845 7.845 0 0 0 2.58 7.876 8.179 8.179 0 0 0 6.134 2.036 8.152 8.152 0 0 0 7.518-9.925h2.187zM13.456 8.031a5.047 5.047 0 0 1 5.169 4.929 5.011 5.011 0 0 1-5.108 4.973 5.01 5.01 0 0 1-5.129-4.949 5.036 5.036 0 0 1 5.068-4.952m6.323-4.956c1-.009 2-.012 2.99 0a.931.931 0 0 1 1.032.992q.037 1.44 0 2.879a.967.967 0 0 1-1.1 1.014h-1.5c-.472 0-.944.009-1.419 0-.647-.015-1.037-.325-1.049-.965a85.557 85.557 0 0 1 0-2.954.914.914 0 0 1 1.041-.967M23.6 0H3.432A3.081 3.081 0 0 0 .014 3.2q-.027 9.8.001 19.587A3.03 3.03 0 0 0 3.3 25.981q10.2.037 20.4 0a3.061 3.061 0 0 0 3.3-3.245q.012-9.758 0-19.511A3.082 3.082 0 0 0 23.6 0"
        fill="#f6efc5"></path>
    </g>
  </symbol>
  <symbol xmlns="http://www.w3.org/2000/svg" viewBox="0 0 16 30" id="facebook">
    <defs>
      <clipPath id="a">
        <path fill="none" d="M0 0h16v30H0z"></path>
      </clipPath>
    </defs>
    <g clip-path="url(#a)">
      <path d="M16 5.068h-2.786s-2.861-.24-2.861 2.339v3.557H15.7l-.668 5.292h-4.679V30H4.785V16.256H0v-5.292h4.785V6.9S4.532-.145 11.489 0C13.414.047 14.88.086 16 .115z" fill="#f6efc5"></path>
    </g>
  </symbol>

  <symbol xmlns="http://www.w3.org/2000/svg" viewBox="0 0 16 26" id="od">
    <defs>
      <clipPath id="a">
        <path fill="none" d="M0 0h16v26H0z"></path>
      </clipPath>
    </defs>
    <g clip-path="url(#a)">
      <path d="M11.312 6.582a3.312 3.312 0 0 1-6.622 0 3.312 3.312 0 0 1 6.622 0m3.422 0A6.661 6.661 0 0 0 8 0a6.66 6.66 0 0 0-6.733 6.582A6.657 6.657 0 0 0 8 13.161a6.658 6.658 0 0 0 6.732-6.579m1.027 7.382c-.38-.745-1.431-1.366-2.833-.287A9.36 9.36 0 0 1 8 15.13a9.366 9.366 0 0 1-4.93-1.453c-1.4-1.079-2.452-.458-2.831.287-.664 1.3.087 1.932 1.775 2.99a11.414 11.414 0 0 0 4.708 1.37l-1.07 1.046c-1.5 1.471-2.958 2.894-3.965 3.878a1.485 1.485 0 0 0 0 2.132l.18.179a1.574 1.574 0 0 0 2.183 0l3.967-3.878c1.5 1.471 2.958 2.9 3.967 3.878a1.571 1.571 0 0 0 2.181 0l.185-.179a1.481 1.481 0 0 0 0-2.132l-3.969-3.878-1.068-1.05a11.342 11.342 0 0 0 4.67-1.366c1.69-1.058 2.441-1.687 1.777-2.99"
        fill="#f6efc5"></path>
    </g>
  </symbol>
  <symbol xmlns="http://www.w3.org/2000/svg" viewBox="0 0 26 20" id="twitter">
    <defs>
      <clipPath id="a">
        <path fill="none" d="M0 0h26v20H0z"></path>
      </clipPath>
    </defs>
    <g clip-path="url(#a)">
      <path d="M26 2.365a11.114 11.114 0 0 1-3.063.8 5.143 5.143 0 0 0 2.349-2.8 10.986 10.986 0 0 1-3.4 1.226A5.471 5.471 0 0 0 18 0a5.2 5.2 0 0 0-5.332 5.048 4.861 4.861 0 0 0 .14 1.152A15.442 15.442 0 0 1 1.81.923a4.811 4.811 0 0 0-.723 2.54 4.975 4.975 0 0 0 2.373 4.2 5.489 5.489 0 0 1-2.411-.63v.062a5.136 5.136 0 0 0 4.275 4.955 5.735 5.735 0 0 1-2.41.085 5.326 5.326 0 0 0 4.981 3.509A11.1 11.1 0 0 1 1.27 17.8 11.483 11.483 0 0 1 0 17.731 15.726 15.726 0 0 0 8.179 20c9.807 0 15.171-7.7 15.171-14.367l-.015-.652A10.465 10.465 0 0 0 26 2.365"
        fill="#f6efc5"></path>
    </g>
  </symbol>
  <symbol xmlns="http://www.w3.org/2000/svg" viewBox="0 0 29 17" id="vk">
    <defs>
      <clipPath id="a">
        <path fill="none" d="M0 0h29v17H0z"></path>
      </clipPath>
    </defs>
    <g clip-path="url(#a)">
      <path d="M25.864 11.757a13.274 13.274 0 0 1 2.878 3.427c.959 1.638-1.065 1.8-1.065 1.8h-3.872a2.567 2.567 0 0 1-1.927-.577c-1.449-1.02-2.817-3.685-3.881-3.332-1.081.352-1.048 2.769-1.048 2.769a1.324 1.324 0 0 1-.237.784 1.443 1.443 0 0 1-.792.356h-1.732a9.9 9.9 0 0 1-7.194-3.4C3.323 9.642.078 1.777.078 1.777s-.187-.512.016-.76C.321.738.945.72.945.72H5.09a1.769 1.769 0 0 1 .67.28 1.291 1.291 0 0 1 .361.495 27.68 27.68 0 0 0 1.555 3.353C9.405 7.927 10.211 8.6 10.8 8.271c.859-.481.6-4.352.6-4.352a4.469 4.469 0 0 0-.431-2.031 1.954 1.954 0 0 0-1.286-.667c-.235-.026.147-.584.646-.835A9.062 9.062 0 0 1 13.947 0a7.245 7.245 0 0 1 2.034.207c1.429.355.946 1.726.946 5.013 0 1.056-.189 2.533.552 3.025.317.213 1.094.031 3.035-3.361a25.788 25.788 0 0 0 1.614-3.534 1.26 1.26 0 0 1 .382-.514 1.031 1.031 0 0 1 .563-.116l4.369.006s1.3-.108 1.515.5c.221.642-.491 2.133-2.271 4.573-2.925 4.013-3.253 3.638-.822 5.96"
        fill="#f6efc5"></path>
    </g>
  </symbol>
  <symbol xmlns="http://www.w3.org/2000/svg" viewBox="0 0 30 20" id="youtube">
    <defs>
      <clipPath id="a">
        <path fill="none" d="M0 0h30v20H0z"></path>
      </clipPath>
    </defs>
    <g clip-path="url(#a)">
      <path d="M11.6 13.955V5.836l8.112 4.058-8.112 4.061M29.52 3.569A3.534 3.534 0 0 0 26.552.535 18.5 18.5 0 0 0 24.32.38C21.185.25 18.05.13 14.773 0 11.237.148 7.565.291 3.895.462A3.553 3.553 0 0 0 .524 3.33a39.571 39.571 0 0 0-.5 5.35 40.378 40.378 0 0 0 .51 7.914 3.682 3.682 0 0 0 3.339 2.963c2.606.137 5.212.282 7.819.381 4.4.168 8.783-.038 13.17-.285a14.193 14.193 0 0 0 1.636-.125 3.748 3.748 0 0 0 2.977-2.968 40.762 40.762 0 0 0 .521-5.853 43.356 43.356 0 0 0-.472-7.139"
        fill="#f6efc5"></path>
    </g>
  </symbol>
</svg>