<svg xmlns="http://www.w3.org/2000/svg" xmlns:xlink="http://www.w3.org/1999/xlink" width="26" height="20" viewBox="0 0 26 20">
  <defs>
    <clipPath id="clip-path">
      <rect id="Rectangle_17" data-name="Rectangle 17" width="26" height="20" transform="translate(0 0)" fill="none"/>
    </clipPath>
  </defs>
  <g id="Vector_Smart_Object" data-name="Vector Smart Object" transform="translate(0 0)">
    <g id="Group_28" data-name="Group 28">
      <g id="Group_27" data-name="Group 27" clip-path="url(#clip-path)">
        <path id="Path_5" data-name="Path 5" d="M26,2.365a11.114,11.114,0,0,1-3.063.8,5.143,5.143,0,0,0,2.349-2.8,10.986,10.986,0,0,1-3.4,1.226A5.471,5.471,0,0,0,18,0a5.2,5.2,0,0,0-5.332,5.048A4.861,4.861,0,0,0,12.808,6.2,15.442,15.442,0,0,1,1.81.923a4.811,4.811,0,0,0-.723,2.54,4.975,4.975,0,0,0,2.373,4.2,5.489,5.489,0,0,1-2.411-.63v.062a5.136,5.136,0,0,0,4.275,4.955,5.735,5.735,0,0,1-2.41.085,5.326,5.326,0,0,0,4.981,3.509A11.1,11.1,0,0,1,1.27,17.8,11.483,11.483,0,0,1,0,17.731,15.726,15.726,0,0,0,8.179,20C17.986,20,23.35,12.3,23.35,5.633l-.015-.652A10.465,10.465,0,0,0,26,2.365" fill="#f6efc5"/>
      </g>
    </g>
  </g>
</svg>
