<svg xmlns="http://www.w3.org/2000/svg" xmlns:xlink="http://www.w3.org/1999/xlink" width="29" height="17" viewBox="0 0 29 17">
  <defs>
    <clipPath id="clip-path">
      <rect id="Rectangle_16" data-name="Rectangle 16" width="29" height="17" transform="translate(0 0)" fill="none"/>
    </clipPath>
  </defs>
  <g id="Vector_Smart_Object" data-name="Vector Smart Object" transform="translate(0 0)">
    <g id="Group_26" data-name="Group 26">
      <g id="Group_25" data-name="Group 25" clip-path="url(#clip-path)">
        <path id="Path_4" data-name="Path 4" d="M25.864,11.757a13.274,13.274,0,0,1,2.878,3.427c.959,1.638-1.065,1.8-1.065,1.8l-3.872,0a2.567,2.567,0,0,1-1.927-.577c-1.449-1.02-2.817-3.685-3.881-3.332-1.081.352-1.048,2.769-1.048,2.769a1.324,1.324,0,0,1-.237.784,1.443,1.443,0,0,1-.792.356H14.188a9.9,9.9,0,0,1-7.194-3.4C3.323,9.642.078,1.777.078,1.777s-.187-.512.016-.76C.321.738.945.72.945.72H5.09A1.769,1.769,0,0,1,5.76,1a1.291,1.291,0,0,1,.361.495A27.68,27.68,0,0,0,7.676,4.848C9.405,7.927,10.211,8.6,10.8,8.271c.859-.481.6-4.352.6-4.352a4.469,4.469,0,0,0-.431-2.031,1.954,1.954,0,0,0-1.286-.667c-.235-.026.147-.584.646-.835A9.062,9.062,0,0,1,13.947,0a7.245,7.245,0,0,1,2.034.207c1.429.355.946,1.726.946,5.013,0,1.056-.189,2.533.552,3.025.317.213,1.094.031,3.035-3.361a25.788,25.788,0,0,0,1.614-3.534A1.26,1.26,0,0,1,22.51.836,1.031,1.031,0,0,1,23.073.72l4.369.006s1.3-.108,1.515.5c.221.642-.491,2.133-2.271,4.573-2.925,4.013-3.253,3.638-.822,5.96" fill="#f6efc5"/>
      </g>
    </g>
  </g>
</svg>
