<svg xmlns="http://www.w3.org/2000/svg" xmlns:xlink="http://www.w3.org/1999/xlink" width="30" height="20" viewBox="0 0 30 20">
  <defs>
    <clipPath id="clip-path">
      <rect id="Rectangle_14" data-name="Rectangle 14" width="30" height="20" transform="translate(0 0)" fill="none"/>
    </clipPath>
  </defs>
  <g id="Vector_Smart_Object" data-name="Vector Smart Object" transform="translate(0 0)">
    <g id="Group_22" data-name="Group 22">
      <g id="Group_21" data-name="Group 21" clip-path="url(#clip-path)">
        <path id="Path_2" data-name="Path 2" d="M11.6,13.955V5.836l8.112,4.058L11.6,13.955M29.52,3.569A3.534,3.534,0,0,0,26.552.535,18.5,18.5,0,0,0,24.32.38C21.185.25,18.05.13,14.773,0,11.237.148,7.565.291,3.895.462A3.553,3.553,0,0,0,.524,3.33a39.571,39.571,0,0,0-.5,5.35,40.378,40.378,0,0,0,.51,7.914,3.682,3.682,0,0,0,3.339,2.963c2.606.137,5.212.282,7.819.381,4.4.168,8.783-.038,13.17-.285a14.193,14.193,0,0,0,1.636-.125,3.748,3.748,0,0,0,2.977-2.968,40.762,40.762,0,0,0,.521-5.853,43.356,43.356,0,0,0-.472-7.139" fill="#f6efc5"/>
      </g>
    </g>
  </g>
</svg>
